<?xml version="1.0" encoding="UTF-8" standalone="no"?><svg xmlns="http://www.w3.org/2000/svg" xmlns:xlink="http://www.w3.org/1999/xlink" contentScriptType="application/ecmascript" contentStyleType="text/css" height="774px" preserveAspectRatio="none" style="width:555px;height:774px;" version="1.1" viewBox="0 0 555 774" width="555px" zoomAndPan="magnify"><defs><filter height="300%" id="f9lsx7fk6mgrw" width="300%" x="-1" y="-1"><feGaussianBlur result="blurOut" stdDeviation="2.0"/><feColorMatrix in="blurOut" result="blurOut2" type="matrix" values="0 0 0 0 0 0 0 0 0 0 0 0 0 0 0 0 0 0 .4 0"/><feOffset dx="4.0" dy="4.0" in="blurOut2" result="blurOut3"/><feBlend in="SourceGraphic" in2="blurOut3" mode="normal"/></filter></defs><g><!--class Interpreter--><rect fill="#FEFECE" filter="url(#f9lsx7fk6mgrw)" height="214.4609" id="Interpreter" style="stroke: #A80036; stroke-width: 1.5;" width="388" x="95" y="8"/><ellipse cx="250.75" cy="24" fill="#ADD1B2" rx="11" ry="11" style="stroke: #A80036; stroke-width: 1.0;"/><path d="M253.0938,19.6719 L253.2656,19.75 C253.4844,19.4375 253.6875,19.3438 253.9844,19.3438 C254.2813,19.3438 254.5625,19.4844 254.7188,19.75 C254.8125,19.9063 254.8281,20.0313 254.8281,20.4688 L254.8281,21.8906 C254.8281,22.3125 254.7969,22.5 254.6875,22.6563 C254.5156,22.875 254.25,23.0156 253.9844,23.0156 C253.7656,23.0156 253.5313,22.9063 253.3906,22.7656 C253.25,22.6406 253.2188,22.5156 253.1563,22.1094 C253.0625,21.7031 252.8906,21.4844 252.4063,21.2031 C251.9375,20.9531 251.3281,20.7969 250.75,20.7969 C249.0156,20.7969 247.7656,22.1094 247.7656,23.8906 L247.7656,24.9844 C247.7656,26.6875 249.0625,27.7813 251.1094,27.7813 C251.875,27.7813 252.5625,27.6563 252.9844,27.3906 C253.1719,27.2969 253.1719,27.2969 253.625,26.8125 C253.8125,26.625 254.0156,26.5469 254.2344,26.5469 C254.7031,26.5469 255.0938,26.9375 255.0938,27.3906 C255.0938,27.7813 254.7656,28.2344 254.1875,28.6406 C253.4375,29.1875 252.2813,29.4844 251.0625,29.4844 C248.1719,29.4844 246.0625,27.5938 246.0625,25.0156 L246.0625,23.8906 C246.0625,21.1719 248.0625,19.0938 250.6875,19.0938 C251.5625,19.0938 252.1563,19.2344 253.0938,19.6719 Z "/><text fill="#000000" font-family="sans-serif" font-size="12" lengthAdjust="spacingAndGlyphs" textLength="68" x="271.25" y="28.1543">Interpreter</text><line style="stroke: #A80036; stroke-width: 1.5;" x1="96" x2="482" y1="40" y2="40"/><text fill="#000000" font-family="sans-serif" font-size="11" lengthAdjust="spacingAndGlyphs" textLength="81" x="101" y="54.2104">my_file: string</text><text fill="#000000" font-family="sans-serif" font-size="11" lengthAdjust="spacingAndGlyphs" textLength="88" x="101" y="67.0151">my_shelf: None</text><text fill="#000000" font-family="sans-serif" font-size="11" lengthAdjust="spacingAndGlyphs" textLength="126" x="101" y="79.8198">my_class_content: list</text><text fill="#000000" font-family="sans-serif" font-size="11" lengthAdjust="spacingAndGlyphs" textLength="179" x="101" y="92.6245">my_relationship_content: string</text><text fill="#000000" font-family="sans-serif" font-size="11" lengthAdjust="spacingAndGlyphs" textLength="103" x="101" y="105.4292">all_my_errors: list</text><line style="stroke: #A80036; stroke-width: 1.5;" x1="96" x2="482" y1="112.0234" y2="112.0234"/><text fill="#000000" font-family="sans-serif" font-size="11" lengthAdjust="spacingAndGlyphs" textLength="272" x="101" y="126.2339">add_file(file_name, new_module_name): Module</text><text fill="#000000" font-family="sans-serif" font-size="11" lengthAdjust="spacingAndGlyphs" textLength="98" x="101" y="139.0386">read_file(): string</text><text fill="#000000" font-family="sans-serif" font-size="11" lengthAdjust="spacingAndGlyphs" textLength="143" x="101" y="151.8433">find_relationship(): string</text><text fill="#000000" font-family="sans-serif" font-size="11" lengthAdjust="spacingAndGlyphs" textLength="376" x="101" y="164.6479">add_class(class_name, attributes, methods, relationships): Class</text><text fill="#000000" font-family="sans-serif" font-size="11" lengthAdjust="spacingAndGlyphs" textLength="115" x="101" y="177.4526">find_classes(): tuple</text><text fill="#000000" font-family="sans-serif" font-size="11" lengthAdjust="spacingAndGlyphs" textLength="286" x="101" y="190.2573">add_module(new_module_name, classes): Module</text><text fill="#000000" font-family="sans-serif" font-size="11" lengthAdjust="spacingAndGlyphs" textLength="116" x="101" y="203.062">write_modules(): file</text><text fill="#000000" font-family="sans-serif" font-size="11" lengthAdjust="spacingAndGlyphs" textLength="125" x="101" y="215.8667">shelve_modules(): file</text><!--class Module--><rect fill="#FEFECE" filter="url(#f9lsx7fk6mgrw)" height="86.4141" id="Module" style="stroke: #A80036; stroke-width: 1.5;" width="342" x="6" y="282"/><ellipse cx="150.25" cy="298" fill="#ADD1B2" rx="11" ry="11" style="stroke: #A80036; stroke-width: 1.0;"/><path d="M152.5938,293.6719 L152.7656,293.75 C152.9844,293.4375 153.1875,293.3438 153.4844,293.3438 C153.7813,293.3438 154.0625,293.4844 154.2188,293.75 C154.3125,293.9063 154.3281,294.0313 154.3281,294.4688 L154.3281,295.8906 C154.3281,296.3125 154.2969,296.5 154.1875,296.6563 C154.0156,296.875 153.75,297.0156 153.4844,297.0156 C153.2656,297.0156 153.0313,296.9063 152.8906,296.7656 C152.75,296.6406 152.7188,296.5156 152.6563,296.1094 C152.5625,295.7031 152.3906,295.4844 151.9063,295.2031 C151.4375,294.9531 150.8281,294.7969 150.25,294.7969 C148.5156,294.7969 147.2656,296.1094 147.2656,297.8906 L147.2656,298.9844 C147.2656,300.6875 148.5625,301.7813 150.6094,301.7813 C151.375,301.7813 152.0625,301.6563 152.4844,301.3906 C152.6719,301.2969 152.6719,301.2969 153.125,300.8125 C153.3125,300.625 153.5156,300.5469 153.7344,300.5469 C154.2031,300.5469 154.5938,300.9375 154.5938,301.3906 C154.5938,301.7813 154.2656,302.2344 153.6875,302.6406 C152.9375,303.1875 151.7813,303.4844 150.5625,303.4844 C147.6719,303.4844 145.5625,301.5938 145.5625,299.0156 L145.5625,297.8906 C145.5625,295.1719 147.5625,293.0938 150.1875,293.0938 C151.0625,293.0938 151.6563,293.2344 152.5938,293.6719 Z "/><text fill="#000000" font-family="sans-serif" font-size="12" lengthAdjust="spacingAndGlyphs" textLength="45" x="170.75" y="302.1543">Module</text><line style="stroke: #A80036; stroke-width: 1.5;" x1="7" x2="347" y1="314" y2="314"/><text fill="#000000" font-family="sans-serif" font-size="11" lengthAdjust="spacingAndGlyphs" textLength="121" x="12" y="328.2104">module_name: string</text><line style="stroke: #A80036; stroke-width: 1.5;" x1="7" x2="347" y1="334.8047" y2="334.8047"/><text fill="#000000" font-family="sans-serif" font-size="11" lengthAdjust="spacingAndGlyphs" textLength="330" x="12" y="349.0151">create_module(new_module_name, new_classes): Module</text><text fill="#000000" font-family="sans-serif" font-size="11" lengthAdjust="spacingAndGlyphs" textLength="102" x="12" y="361.8198">write_files(): tuple</text><!--class ClassBuilder--><rect fill="#FEFECE" filter="url(#f9lsx7fk6mgrw)" height="163.2422" id="ClassBuilder" style="stroke: #A80036; stroke-width: 1.5;" width="511" x="33.5" y="428"/><ellipse cx="246.75" cy="444" fill="#ADD1B2" rx="11" ry="11" style="stroke: #A80036; stroke-width: 1.0;"/><path d="M249.0938,439.6719 L249.2656,439.75 C249.4844,439.4375 249.6875,439.3438 249.9844,439.3438 C250.2813,439.3438 250.5625,439.4844 250.7188,439.75 C250.8125,439.9063 250.8281,440.0313 250.8281,440.4688 L250.8281,441.8906 C250.8281,442.3125 250.7969,442.5 250.6875,442.6563 C250.5156,442.875 250.25,443.0156 249.9844,443.0156 C249.7656,443.0156 249.5313,442.9063 249.3906,442.7656 C249.25,442.6406 249.2188,442.5156 249.1563,442.1094 C249.0625,441.7031 248.8906,441.4844 248.4063,441.2031 C247.9375,440.9531 247.3281,440.7969 246.75,440.7969 C245.0156,440.7969 243.7656,442.1094 243.7656,443.8906 L243.7656,444.9844 C243.7656,446.6875 245.0625,447.7813 247.1094,447.7813 C247.875,447.7813 248.5625,447.6563 248.9844,447.3906 C249.1719,447.2969 249.1719,447.2969 249.625,446.8125 C249.8125,446.625 250.0156,446.5469 250.2344,446.5469 C250.7031,446.5469 251.0938,446.9375 251.0938,447.3906 C251.0938,447.7813 250.7656,448.2344 250.1875,448.6406 C249.4375,449.1875 248.2813,449.4844 247.0625,449.4844 C244.1719,449.4844 242.0625,447.5938 242.0625,445.0156 L242.0625,443.8906 C242.0625,441.1719 244.0625,439.0938 246.6875,439.0938 C247.5625,439.0938 248.1563,439.2344 249.0938,439.6719 Z "/><text fill="#000000" font-family="sans-serif" font-size="12" lengthAdjust="spacingAndGlyphs" textLength="76" x="267.25" y="448.1543">ClassBuilder</text><line style="stroke: #A80036; stroke-width: 1.5;" x1="34.5" x2="543.5" y1="460" y2="460"/><text fill="#000000" font-family="sans-serif" font-size="11" lengthAdjust="spacingAndGlyphs" textLength="73" x="39.5" y="474.2104">name: string</text><text fill="#000000" font-family="sans-serif" font-size="11" lengthAdjust="spacingAndGlyphs" textLength="96" x="39.5" y="487.0151">attributes: string</text><text fill="#000000" font-family="sans-serif" font-size="11" lengthAdjust="spacingAndGlyphs" textLength="91" x="39.5" y="499.8198">methods: string</text><text fill="#000000" font-family="sans-serif" font-size="11" lengthAdjust="spacingAndGlyphs" textLength="115" x="39.5" y="512.6245">relationships: string</text><line style="stroke: #A80036; stroke-width: 1.5;" x1="34.5" x2="543.5" y1="519.2188" y2="519.2188"/><text fill="#000000" font-family="sans-serif" font-size="11" lengthAdjust="spacingAndGlyphs" textLength="186" x="39.5" y="533.4292">add_class_attributes() : Attribute</text><text fill="#000000" font-family="sans-serif" font-size="11" lengthAdjust="spacingAndGlyphs" textLength="170" x="39.5" y="546.2339">add_class_methods(): Method</text><text fill="#000000" font-family="sans-serif" font-size="11" lengthAdjust="spacingAndGlyphs" textLength="186" x="39.5" y="559.0386">add_relationships(): Relationship</text><text fill="#000000" font-family="sans-serif" font-size="11" lengthAdjust="spacingAndGlyphs" textLength="499" x="39.5" y="571.8433">build_class(new_name, new_attributes, new_methods, new_relationship) : ClassBuilder</text><text fill="#000000" font-family="sans-serif" font-size="11" lengthAdjust="spacingAndGlyphs" textLength="111" x="39.5" y="584.6479">print_class(): string</text><!--class Attribute--><rect fill="#FEFECE" filter="url(#f9lsx7fk6mgrw)" height="99.2188" id="Attribute" style="stroke: #A80036; stroke-width: 1.5;" width="112" x="82" y="657.5"/><ellipse cx="108.25" cy="673.5" fill="#ADD1B2" rx="11" ry="11" style="stroke: #A80036; stroke-width: 1.0;"/><path d="M110.5938,669.1719 L110.7656,669.25 C110.9844,668.9375 111.1875,668.8438 111.4844,668.8438 C111.7813,668.8438 112.0625,668.9844 112.2188,669.25 C112.3125,669.4063 112.3281,669.5313 112.3281,669.9688 L112.3281,671.3906 C112.3281,671.8125 112.2969,672 112.1875,672.1563 C112.0156,672.375 111.75,672.5156 111.4844,672.5156 C111.2656,672.5156 111.0313,672.4063 110.8906,672.2656 C110.75,672.1406 110.7188,672.0156 110.6563,671.6094 C110.5625,671.2031 110.3906,670.9844 109.9063,670.7031 C109.4375,670.4531 108.8281,670.2969 108.25,670.2969 C106.5156,670.2969 105.2656,671.6094 105.2656,673.3906 L105.2656,674.4844 C105.2656,676.1875 106.5625,677.2813 108.6094,677.2813 C109.375,677.2813 110.0625,677.1563 110.4844,676.8906 C110.6719,676.7969 110.6719,676.7969 111.125,676.3125 C111.3125,676.125 111.5156,676.0469 111.7344,676.0469 C112.2031,676.0469 112.5938,676.4375 112.5938,676.8906 C112.5938,677.2813 112.2656,677.7344 111.6875,678.1406 C110.9375,678.6875 109.7813,678.9844 108.5625,678.9844 C105.6719,678.9844 103.5625,677.0938 103.5625,674.5156 L103.5625,673.3906 C103.5625,670.6719 105.5625,668.5938 108.1875,668.5938 C109.0625,668.5938 109.6563,668.7344 110.5938,669.1719 Z "/><text fill="#000000" font-family="sans-serif" font-size="12" lengthAdjust="spacingAndGlyphs" textLength="55" x="124.75" y="677.6543">Attribute</text><line style="stroke: #A80036; stroke-width: 1.5;" x1="83" x2="193" y1="689.5" y2="689.5"/><text fill="#000000" font-family="sans-serif" font-size="11" lengthAdjust="spacingAndGlyphs" textLength="73" x="88" y="703.7104">name: string</text><text fill="#000000" font-family="sans-serif" font-size="11" lengthAdjust="spacingAndGlyphs" textLength="65" x="88" y="716.5151">type: string</text><line style="stroke: #A80036; stroke-width: 1.5;" x1="83" x2="193" y1="723.1094" y2="723.1094"/><text fill="#000000" font-family="sans-serif" font-size="11" lengthAdjust="spacingAndGlyphs" textLength="89" x="88" y="737.3198">__str__(): string</text><text fill="#000000" font-family="sans-serif" font-size="11" lengthAdjust="spacingAndGlyphs" textLength="100" x="88" y="750.1245">find_type(): string</text><!--class Method--><rect fill="#FEFECE" filter="url(#f9lsx7fk6mgrw)" height="112.0234" id="Method" style="stroke: #A80036; stroke-width: 1.5;" width="120" x="229" y="651"/><ellipse cx="262.45" cy="667" fill="#ADD1B2" rx="11" ry="11" style="stroke: #A80036; stroke-width: 1.0;"/><path d="M264.7938,662.6719 L264.9656,662.75 C265.1844,662.4375 265.3875,662.3438 265.6844,662.3438 C265.9813,662.3438 266.2625,662.4844 266.4188,662.75 C266.5125,662.9063 266.5281,663.0313 266.5281,663.4688 L266.5281,664.8906 C266.5281,665.3125 266.4969,665.5 266.3875,665.6563 C266.2156,665.875 265.95,666.0156 265.6844,666.0156 C265.4656,666.0156 265.2313,665.9063 265.0906,665.7656 C264.95,665.6406 264.9188,665.5156 264.8563,665.1094 C264.7625,664.7031 264.5906,664.4844 264.1063,664.2031 C263.6375,663.9531 263.0281,663.7969 262.45,663.7969 C260.7156,663.7969 259.4656,665.1094 259.4656,666.8906 L259.4656,667.9844 C259.4656,669.6875 260.7625,670.7813 262.8094,670.7813 C263.575,670.7813 264.2625,670.6563 264.6844,670.3906 C264.8719,670.2969 264.8719,670.2969 265.325,669.8125 C265.5125,669.625 265.7156,669.5469 265.9344,669.5469 C266.4031,669.5469 266.7938,669.9375 266.7938,670.3906 C266.7938,670.7813 266.4656,671.2344 265.8875,671.6406 C265.1375,672.1875 263.9813,672.4844 262.7625,672.4844 C259.8719,672.4844 257.7625,670.5938 257.7625,668.0156 L257.7625,666.8906 C257.7625,664.1719 259.7625,662.0938 262.3875,662.0938 C263.2625,662.0938 263.8563,662.2344 264.7938,662.6719 Z "/><text fill="#000000" font-family="sans-serif" font-size="12" lengthAdjust="spacingAndGlyphs" textLength="47" x="280.55" y="671.1543">Method</text><line style="stroke: #A80036; stroke-width: 1.5;" x1="230" x2="348" y1="683" y2="683"/><text fill="#000000" font-family="sans-serif" font-size="11" lengthAdjust="spacingAndGlyphs" textLength="73" x="235" y="697.2104">name: string</text><text fill="#000000" font-family="sans-serif" font-size="11" lengthAdjust="spacingAndGlyphs" textLength="69" x="235" y="710.0151">input: string</text><text fill="#000000" font-family="sans-serif" font-size="11" lengthAdjust="spacingAndGlyphs" textLength="106" x="235" y="722.8198">return_type: string</text><line style="stroke: #A80036; stroke-width: 1.5;" x1="230" x2="348" y1="729.4141" y2="729.4141"/><text fill="#000000" font-family="sans-serif" font-size="11" lengthAdjust="spacingAndGlyphs" textLength="89" x="235" y="743.6245">__str__(): string</text><text fill="#000000" font-family="sans-serif" font-size="11" lengthAdjust="spacingAndGlyphs" textLength="108" x="235" y="756.4292">get_return(): string</text><!--class Relationship--><rect fill="#FEFECE" filter="url(#f9lsx7fk6mgrw)" height="86.4141" id="Relationship" style="stroke: #A80036; stroke-width: 1.5;" width="109" x="384.5" y="664"/><ellipse cx="399.5" cy="680" fill="#ADD1B2" rx="11" ry="11" style="stroke: #A80036; stroke-width: 1.0;"/><path d="M401.8438,675.6719 L402.0156,675.75 C402.2344,675.4375 402.4375,675.3438 402.7344,675.3438 C403.0313,675.3438 403.3125,675.4844 403.4688,675.75 C403.5625,675.9063 403.5781,676.0313 403.5781,676.4688 L403.5781,677.8906 C403.5781,678.3125 403.5469,678.5 403.4375,678.6563 C403.2656,678.875 403,679.0156 402.7344,679.0156 C402.5156,679.0156 402.2813,678.9063 402.1406,678.7656 C402,678.6406 401.9688,678.5156 401.9063,678.1094 C401.8125,677.7031 401.6406,677.4844 401.1563,677.2031 C400.6875,676.9531 400.0781,676.7969 399.5,676.7969 C397.7656,676.7969 396.5156,678.1094 396.5156,679.8906 L396.5156,680.9844 C396.5156,682.6875 397.8125,683.7813 399.8594,683.7813 C400.625,683.7813 401.3125,683.6563 401.7344,683.3906 C401.9219,683.2969 401.9219,683.2969 402.375,682.8125 C402.5625,682.625 402.7656,682.5469 402.9844,682.5469 C403.4531,682.5469 403.8438,682.9375 403.8438,683.3906 C403.8438,683.7813 403.5156,684.2344 402.9375,684.6406 C402.1875,685.1875 401.0313,685.4844 399.8125,685.4844 C396.9219,685.4844 394.8125,683.5938 394.8125,681.0156 L394.8125,679.8906 C394.8125,677.1719 396.8125,675.0938 399.4375,675.0938 C400.3125,675.0938 400.9063,675.2344 401.8438,675.6719 Z "/><text fill="#000000" font-family="sans-serif" font-size="12" lengthAdjust="spacingAndGlyphs" textLength="77" x="413.5" y="684.1543">Relationship</text><line style="stroke: #A80036; stroke-width: 1.5;" x1="385.5" x2="492.5" y1="696" y2="696"/><text fill="#000000" font-family="sans-serif" font-size="11" lengthAdjust="spacingAndGlyphs" textLength="73" x="390.5" y="710.2104">name: string</text><text fill="#000000" font-family="sans-serif" font-size="11" lengthAdjust="spacingAndGlyphs" textLength="65" x="390.5" y="723.0151">type: string</text><line style="stroke: #A80036; stroke-width: 1.5;" x1="385.5" x2="492.5" y1="729.6094" y2="729.6094"/><text fill="#000000" font-family="sans-serif" font-size="11" lengthAdjust="spacingAndGlyphs" textLength="89" x="390.5" y="743.8198">__str__(): string</text><!--link Module to ClassBuilder--><path d="M209.835,379.504 C219.094,394.59 229.378,411.348 239.386,427.656 " fill="none" id="Module-ClassBuilder" style="stroke: #A80036; stroke-width: 1.0;"/><polygon fill="#A80036" points="202.977,368.328,202.7062,375.534,209.2538,378.5555,209.5246,371.3495,202.977,368.328" style="stroke: #A80036; stroke-width: 1.0;"/><text fill="#000000" font-family="sans-serif" font-size="13" lengthAdjust="spacingAndGlyphs" textLength="8" x="198.4796" y="388.4732">1</text><text fill="#000000" font-family="sans-serif" font-size="13" lengthAdjust="spacingAndGlyphs" textLength="27" x="206.9621" y="417.0402">0...*</text><!--link ClassBuilder to Attribute--><path d="M218.712,601.503 C203.801,620.807 188.619,640.464 175.505,657.443 " fill="none" id="ClassBuilder-Attribute" style="stroke: #A80036; stroke-width: 1.0;"/><polygon fill="#A80036" points="226.711,591.146,219.8776,593.4492,219.3754,600.6428,226.2088,598.3396,226.711,591.146" style="stroke: #A80036; stroke-width: 1.0;"/><text fill="#000000" font-family="sans-serif" font-size="13" lengthAdjust="spacingAndGlyphs" textLength="8" x="212.6" y="611.426">1</text><text fill="#000000" font-family="sans-serif" font-size="13" lengthAdjust="spacingAndGlyphs" textLength="27" x="151.8807" y="646.4802">0...*</text><!--link ClassBuilder to Method--><path d="M289,604.436 C289,620.338 289,636.376 289,650.861 " fill="none" id="ClassBuilder-Method" style="stroke: #A80036; stroke-width: 1.0;"/><polygon fill="#A80036" points="289,591.146,285,597.146,289,603.146,293,597.146,289,591.146" style="stroke: #A80036; stroke-width: 1.0;"/><text fill="#000000" font-family="sans-serif" font-size="13" lengthAdjust="spacingAndGlyphs" textLength="8" x="280.6313" y="611.426">1</text><text fill="#000000" font-family="sans-serif" font-size="13" lengthAdjust="spacingAndGlyphs" textLength="27" x="260.2703" y="639.7812">0...*</text><!--link ClassBuilder to Relationship--><path d="M359.001,601.735 C375.634,623.412 392.595,645.519 406.595,663.7656 " fill="none" id="ClassBuilder-Relationship" style="stroke: #A80036; stroke-width: 1.0;"/><polygon fill="#A80036" points="350.877,591.146,351.3561,598.3412,358.1821,600.6663,357.703,593.4711,350.877,591.146" style="stroke: #A80036; stroke-width: 1.0;"/><text fill="#000000" font-family="sans-serif" font-size="13" lengthAdjust="spacingAndGlyphs" textLength="8" x="348.2125" y="611.426">1</text><text fill="#000000" font-family="sans-serif" font-size="13" lengthAdjust="spacingAndGlyphs" textLength="27" x="372.5658" y="653.0427">0...*</text><!--link Interpreter to Module--><path d="M225.44,234.04 C216.224,251.155 207.287,267.752 199.651,281.934 " fill="none" id="Interpreter-Module" style="stroke: #A80036; stroke-width: 1.0;"/><polygon fill="#A80036" points="231.852,222.133,225.4856,225.5195,226.163,232.6987,232.5294,229.3122,231.852,222.133" style="stroke: #A80036; stroke-width: 1.0;"/><text fill="#000000" font-family="sans-serif" font-size="13" lengthAdjust="spacingAndGlyphs" textLength="8" x="219.3614" y="242.6062">1</text><text fill="#000000" font-family="sans-serif" font-size="13" lengthAdjust="spacingAndGlyphs" textLength="27" x="174.1094" y="270.9195">0...*</text><!--link Interpreter to ClassBuilder--><path d="M352.94,234.32 C368.226,276.3 377.258,324.034 366,368 C360.791,388.344 351.957,408.909 342.089,427.795 " fill="none" id="Interpreter-ClassBuilder" style="stroke: #A80036; stroke-width: 1.0;"/><polygon fill="#A80036" points="348.244,222.066,346.6558,229.1,352.5379,233.2715,354.1261,226.2374,348.244,222.066" style="stroke: #A80036; stroke-width: 1.0;"/><text fill="#000000" font-family="sans-serif" font-size="13" lengthAdjust="spacingAndGlyphs" textLength="8" x="344.301" y="242.5343">1</text><text fill="#000000" font-family="sans-serif" font-size="13" lengthAdjust="spacingAndGlyphs" textLength="27" x="318.6149" y="416.9122">0...*</text><!--
@startuml
class Interpreter {
 my_file: string
 my_shelf: None
 my_class_content: list
 my_relationship_content: string
 all_my_errors: list
 add_file(file_name, new_module_name): Module
 read_file(): string
 find_relationship(): string
 add_class(class_name, attributes, methods, relationships): Class
 find_classes(): tuple
 add_module(new_module_name, classes): Module
 write_modules(): file
 shelve_modules(): file
}

class Module {
  module_name: string
  create_module(new_module_name, new_classes): Module
  write_files(): tuple
}

class ClassBuilder {
  name: string
  attributes: string
  methods: string
  relationships: string
  add_class_attributes() : Attribute
  add_class_methods(): Method
  add_relationships(): Relationship
  build_class(new_name, new_attributes, new_methods, new_relationship) : ClassBuilder
  print_class(): string
}

class Attribute {
  name: string
  type: string
  __str__(): string
  find_type(): string
}

class Method {
  name: string
  input: string
  return_type: string
  __str__(): string
  get_return(): string
}

class Relationship {
  name: string
  type: string
  __str__(): string
}

Module "1" *- - "0...*" ClassBuilder
ClassBuilder "1" *- - "0...*"  Attribute
ClassBuilder "1" *- - "0...*"  Method
ClassBuilder "1" *- - "0...*"  Relationship
Interpreter "1" *- - "0...*" Module
Interpreter "1" *- - "0...*"  ClassBuilder
@enduml

PlantUML version 1.2019.03(Sun Mar 10 11:04:44 UTC 2019)
(GPL source distribution)
Java Runtime: Java(TM) SE Runtime Environment
JVM: Java HotSpot(TM) 64-Bit Server VM
Java Version: 1.7.0_25-b15
Operating System: Linux
Default Encoding: UTF-8
Language: en
Country: US
--></g></svg>